HIERARCHY
ROOT Hips
{
  OFFSET 57.8838 95.319 338.509
  CHANNELS 6 Xposition Yposition Zposition Zrotation Xrotation Yrotation
  JOINT LeftUpLeg
  {
    OFFSET 8.64259 1.95398 -2.38835
    CHANNELS 3 Zrotation Xrotation Yrotation
    JOINT LeftLeg
    {
      OFFSET 43.7702 0 0
      CHANNELS 3 Zrotation Xrotation Yrotation
      JOINT LeftFoot
      {
        OFFSET 40.6238 0 0
        CHANNELS 3 Zrotation Xrotation Yrotation
        JOINT LeftToeBase
        {
          OFFSET 12.7242 0 0
          CHANNELS 3 Zrotation Xrotation Yrotation
          End Site
          {
            OFFSET 0 0 0
          }
        }
      }
    }
  }
  JOINT RightUpLeg
  {
    OFFSET -8.2249 1.95398 -2.59336
    CHANNELS 3 Zrotation Xrotation Yrotation
    JOINT RightLeg
    {
      OFFSET 43.5653 0 0
      CHANNELS 3 Zrotation Xrotation Yrotation
      JOINT RightFoot
      {
        OFFSET 40.6238 0 0
        CHANNELS 3 Zrotation Xrotation Yrotation
        JOINT RightToeBase
        {
          OFFSET 12.7242 0 0
          CHANNELS 3 Zrotation Xrotation Yrotation
          End Site
          {
            OFFSET 0 0 0
          }
        }
      }
    }
  }
  JOINT Spine
  {
    OFFSET 0.165834 0.87714 6.61349
    CHANNELS 3 Zrotation Xrotation Yrotation
    JOINT Spine1
    {
      OFFSET 7.38963 1.71661e-005 0
      CHANNELS 3 Zrotation Xrotation Yrotation
      JOINT Spine2
      {
        OFFSET 11.9445 1.14441e-005 0
        CHANNELS 3 Zrotation Xrotation Yrotation
        JOINT Spine3
        {
          OFFSET 14.7254 4.19617e-005 0
          CHANNELS 3 Zrotation Xrotation Yrotation
          JOINT Spine4
          {
            OFFSET 10.9679 0 0
            CHANNELS 3 Zrotation Xrotation Yrotation
            JOINT RightShoulder
            {
              OFFSET 2.46616 -1.6653 3.69651
              CHANNELS 3 Zrotation Xrotation Yrotation
              JOINT RightArm
              {
                OFFSET 13.0012 0 0
                CHANNELS 3 Zrotation Xrotation Yrotation
                JOINT RightForeArm
                {
                  OFFSET 28.7848 1.62311e-005 0
                  CHANNELS 3 Zrotation Xrotation Yrotation
                  JOINT RightHand
                  {
                    OFFSET 26.5688 1.62095e-005 0
                    CHANNELS 3 Zrotation Xrotation Yrotation
                    End Site
                    {
                      OFFSET 0 0 0
                    }
                  }
                }
              }
            }
            JOINT LeftShoulder
            {
              OFFSET 2.38034 -1.29275 -3.7523
              CHANNELS 3 Zrotation Xrotation Yrotation
              JOINT LeftArm
              {
                OFFSET 16.3182 6.07031e-005 0
                CHANNELS 3 Zrotation Xrotation Yrotation
                JOINT LeftForeArm
                {
                  OFFSET 27.0901 0 0
                  CHANNELS 3 Zrotation Xrotation Yrotation
                  JOINT LeftHand
                  {
                    OFFSET 24.5451 1.51738e-005 0
                    CHANNELS 3 Zrotation Xrotation Yrotation
                    End Site
                    {
                      OFFSET 0 0 0
                    }
                  }
                }
              }
            }
            JOINT Neck
            {
              OFFSET 5.0226 -0.0266342 0
              CHANNELS 3 Zrotation Xrotation Yrotation
              JOINT Head
              {
                OFFSET 6.69364 2.86102e-005 0
                CHANNELS 3 Zrotation Xrotation Yrotation
                End Site
                {
                  OFFSET 0 0 0
                }
              }
            }
          }
        }
      }
    }
  }
}
MOTION
Frames:	12
Frame Time:	0.0416667
216.219 96.1891 -225.212 -99.8197 -55.803 -96.2125 -174.722 -15.1482 93.6307 -28.2122 29.4622 5.52998 57.6806 0.840493 5.8039 58.2298 12.6595 2.89436 174.236 22.7864 91.008 -21.0107 -1.3272 1.7819 59.9586 10.5892 14.8497 22.5455 8.89139 -2.93052 -0.658265 7.76393 -90.4037 11.3428 -1.49891 -0.669724 -0.327449 -1.52693 -0.603106 -22.8665 -1.22836 -1.08928 -2.85383 -1.22833 -1.08928 97.644 -51.4566 -88.8931 37.1481 -2.9911 4.98253 1.66654 -19.8338 -9.51493 -7.28658 -0.415425 1.58098 -80.7369 -55.8443 92.9985 -30.9242 -4.46871 -37.9246 8.53506 59.8063 -19.6761 6.22031 -0.873083 -14.6817 16.6442 0.630774 -4.71014 -18.3628 0.49495 10.1515 
207.922 95.3251 -218.119 -98.0158 -54.0794 -91.6413 -176.504 -9.77203 94.8068 -42.2858 20.0322 6.89557 50.4705 -7.92421 0.528052 56.8035 11.8764 3.08498 173.724 23.7413 95.974 -33.7639 -6.10025 2.83918 63.3457 3.65358 6.99461 23.4623 6.6697 2.64165 -0.62449 7.69271 -90.9031 11.472 -1.66434 -1.62898 -0.198823 -1.73442 -1.55417 -22.7299 -1.09793 -2.05376 -2.71727 -1.09794 -2.05377 97.6602 -50.5188 -88.9507 36.2467 -2.51125 2.07049 2.70205 -18.9259 -7.51323 -7.20916 -0.402121 1.42806 -81.0482 -56.6361 92.5983 -34.4873 -9.74224 -34.5698 0.736235 63.8468 -6.0445 8.25871 -0.743851 -11.9815 17.6368 1.70356 -3.78455 -19.655 1.18961 10.2296 
200.152 95.6772 -211.43 -99.3627 -55.2051 -92.0231 -178.079 2.10705 90.6326 -59.6413 12.2363 6.38216 51.3764 -5.36731 4.80018 47.6943 9.26491 11.5067 172.992 17.4504 98.251 -36.951 -4.31415 3.11857 68.8783 -1.77944 5.62106 27.2606 1.80356 2.99099 -0.499317 7.80819 -91.0578 11.2399 -1.48582 -1.96006 -0.43158 -1.57062 -1.8928 -22.9576 -0.828238 -2.31583 -2.94499 -0.828211 -2.31583 97.4189 -51.1584 -89.2635 34.0011 -3.4951 -0.235811 1.68355 -15.7711 -11.1648 -8.5776 -0.523455 2.00913 -81.5171 -56.9778 91.9609 -40.5596 -16.4646 -35.6281 3.57132 83.0173 1.20001 1.94685 -0.172617 -15.6289 16.0851 0.66022 -3.62485 -18.3937 0.382254 8.86677 
192.641 96.8869 -204.673 -98.6466 -53.0726 -93.8443 -176.587 12.9385 87.6288 -59.5345 10.5014 3.19533 54.4082 0.101116 9.10252 53.3335 12.0247 10.5071 172.8 10.1452 96.5344 -35.7022 -3.84794 1.86811 73.508 -3.0118 9.16562 27.3474 1.65201 3.63347 0.0284653 7.837 -90.7758 11.1953 -0.3041 -1.5144 -0.476468 -0.370476 -1.49955 -23.0046 0.165019 -1.53578 -2.99193 0.165027 -1.53578 98.0556 -51.2413 -88.2821 31.7408 -6.36442 -2.72987 -1.06772 -13.8372 -18.9674 -11.039 -0.72469 2.54503 -81.7282 -56.9845 91.6654 -40.9345 -22.9455 -30.863 7.15773 87.9878 0.34753 -2.67901 0.223747 -12.2091 14.9138 -0.254814 -3.97601 -17.5712 -0.284827 8.10713 
185.905 97.769 -198.099 -96.8704 -50.6961 -93.3513 -177.43 19.0131 85.1228 -40.4264 7.42303 0.296148 56.026 2.75527 8.06709 53.3176 12.9323 15.0176 172.264 2.50163 95.4137 -31.3134 -3.26121 1.02559 75.2614 -1.71509 13.5894 27.6999 1.2304 3.30838 0.315442 7.87103 -90.6095 11.1323 0.34466 -1.24715 -0.539203 0.289458 -1.26112 -23.0709 0.703532 -1.08594 -3.05826 0.703545 -1.08595 97.8058 -50.5882 -88.72 29.199 -7.97457 -6.89965 -2.83954 -10.7909 -26.0962 -13.5362 -0.738404 1.19744 -81.3266 -57.798 92.2744 -34.8432 -26.9069 -22.1952 6.05542 82.0983 0.0651697 1.21832 -0.0741393 -13.9796 16.4855 -0.260439 -3.54376 -18.5883 -0.33876 7.47783 
179.72 97.51 -191.783 -93.6965 -47.9642 -90.5285 178.088 21.5929 86.817 -12.8578 6.55182 -0.418058 54.6963 -1.48939 6.01997 43.1219 7.10582 13.3805 172.108 -3.09744 95.3698 -26.6332 -3.5745 0.679582 74.7604 -3.81103 14.7889 30.3398 -2.07292 2.12958 0.58697 7.8126 -90.5844 11.2524 0.896234 -1.25243 -0.418883 0.840252 -1.29066 -22.9536 1.23118 -0.925195 -2.94091 1.23119 -0.925196 97.2658 -50.3297 -89.5773 25.8974 -9.00224 -12.5108 -4.90438 -10.7252 -31.2402 -14.9209 -0.765351 0.792623 -81.4304 -57.6226 92.1202 -32.4006 -31.6988 -16.5123 8.23662 81.7324 0.0900899 2.36799 -0.0963923 -12.9106 17.4124 -0.216704 -3.13878 -18.2055 -0.315067 7.15235 
173.094 96.1922 -184.927 -93.4864 -44.5055 -88.9273 176.621 23.4491 89.8032 -6.54716 6.62515 0.426069 57.3546 -2.31893 2.47303 39.1015 4.69373 11.3928 172.329 -9.36735 94.7098 -26.2839 -9.40903 -0.0498313 71.5952 -4.30087 14.7924 35.4039 -8.72393 0.583997 0.815057 7.96874 -90.6056 10.941 1.34243 -1.33161 -0.729993 1.28254 -1.38941 -23.2678 1.68055 -0.866566 -3.25513 1.68054 -0.866569 96.5641 -49.6787 -90.734 24.1829 -10.8524 -17.8957 -6.71276 -10.7512 -33.9098 -12.981 -0.649955 0.677744 -80.8718 -58.1905 92.9257 -33.6762 -39.0121 -18.1688 14.6789 88.6367 0.97877 -2.03727 0.308886 -12.7386 18.9469 0.529127 -3.32782 -17.9597 0.44955 7.68322 
165.115 95.4146 -176.672 -92.2325 -44.5285 -90.2199 177.26 25.927 87.1191 -18.6139 12.3558 -0.314924 53.8081 -4.93408 8.79213 38.4336 4.39701 12.5473 172.199 -11.5792 91.4975 -30.2655 -13.6598 -1.59874 63.3672 4.61338 15.0666 36.0984 -9.8878 -1.25496 0.85978 8.03484 -90.0675 10.8073 1.68089 -0.290506 -0.862659 1.66647 -0.364224 -23.4065 1.69045 0.228244 -3.39383 1.69047 0.228255 96.654 -51.1596 -90.434 23.7772 -14.1196 -16.5473 -7.1449 -8.42896 -38.0579 -18.1318 -1.05928 1.60142 -81.8192 -57.1823 91.5508 -35.9813 -41.3241 -22.4052 -160.43 84.1133 179.723 -0.175309 0.275282 -10.0926 22.3587 -0.803239 -5.92277 -19.2737 -0.0342068 8.19971 
156.849 95.2474 -168.264 -89.6704 -45.7407 -91.3938 177.714 25.4563 83.1526 -28.0891 11.7569 -0.427114 58.9773 -2.03937 10.2523 40.9758 5.45847 7.78502 171.562 -6.11228 90.1247 -40.2422 -12.6363 -1.25596 48.5399 17.6928 16.0079 18.5649 16.8798 -9.72561 0.726761 8.09435 -89.3999 10.6763 1.72384 1.03871 -0.993816 1.76789 0.961811 -23.5316 1.33198 1.50877 -3.51896 1.33199 1.50876 96.7936 -51.4455 -90.1905 27.1774 -22.5731 -10.4737 -9.72514 -7.48697 -40.5847 -18.8559 -1.25897 2.45675 -82.9494 -55.2987 89.8164 -34.1417 -35.8742 -22.5707 13.346 84.0006 0.188077 1.6498 0.0774179 -11.7826 26.4509 -1.78605 -6.80658 -20.3923 -0.339 7.11148 
149.126 95.1786 -160.291 -88.3452 -47.3803 -92.3846 178.367 20.4482 80.2378 -31.5662 13.381 -0.454836 64.1763 2.87478 12.0789 46.0801 7.97004 8.34169 172.268 8.97327 84.794 -63.0893 -17.8131 -0.988731 48.6635 17.1197 9.47227 17.4582 15.8981 -2.63651 0.163911 8.53741 -88.9674 9.78538 0.794083 1.98222 -1.88683 0.880529 1.94537 -24.4096 0.161805 2.12917 -4.39693 0.161808 2.12916 97.124 -51.0804 -89.7235 30.3405 -28.7284 -9.17146 -11.9647 -9.62264 -37.6561 -10.2995 -0.582066 1.49575 -84.4436 -55.8033 87.7404 -27.5839 -26.0561 -22.0672 1.88316 59.2903 -0.0139356 1.68175 -0.255594 -15.6078 29.6173 -1.2878 -7.53426 -19.3607 0.488555 8.54356 
141.336 95.8854 -152.152 -81.5442 -49.8068 -85.0667 178.92 14.5725 82.5086 -27.2569 16.2413 0.158971 67.1517 7.26526 12.101 51.2321 11.137 11.4616 173.066 28.2273 94.0453 -67.4814 -12.5673 -0.433223 59.1663 3.31375 6.76549 29.4259 -0.708935 -5.03846 -0.292122 8.74728 -89.1581 9.37932 -0.203955 1.6855 -2.2927 -0.129589 1.69283 -24.8204 -0.701031 1.54634 -4.80777 -0.701032 1.54634 96.7026 -53.3611 -90.1319 32.1926 -24.5872 -7.23153 -9.21733 -12.8636 -32.5489 -14.4137 -0.693662 0.465492 -84.7578 -56.2218 87.343 -25.5011 -19.2494 -32.2225 -3.15652 42.675 0.408498 4.73649 -0.676327 -15.5488 32.2713 -0.418061 -7.12472 -19.0941 1.37557 8.30158 
133.277 94.7207 -143.801 -74.5331 -52.741 -79.5753 179.944 8.07336 83.3736 -22.2794 19.8347 0.074336 68.4357 12.0813 14.5569 51.878 10.4514 6.09075 176.336 43.6318 93.3219 -57.7605 -5.42531 -0.774796 65.1935 -3.9248 8.00855 37.536 -13.1666 -8.25175 -0.571769 9.11328 -89.3531 8.65059 -0.854041 1.33501 -3.02081 -0.794472 1.37128 -25.5547 -1.21577 1.01663 -5.54204 -1.21577 1.01664 96.2358 -52.4044 -90.9335 35.8818 -21.0563 -1.38379 -5.75574 -8.25501 -32.0671 -14.6744 -0.874067 1.7695 -85.9915 -58.1112 85.8505 -22.4331 -15.2114 -49.3172 -1.31141 36.3585 -5.43539 2.78756 -0.660552 -16.9697 34.8941 0.346606 -4.8733 -19.3576 1.48053 6.72695 
